<?xml version="1.0" encoding="UTF-8" standalone="no"?>
<!-- Created with Inkscape (http://www.inkscape.org/) -->

<svg
   xmlns:dc="http://purl.org/dc/elements/1.1/"
   xmlns:cc="http://creativecommons.org/ns#"
   xmlns:rdf="http://www.w3.org/1999/02/22-rdf-syntax-ns#"
   xmlns:svg="http://www.w3.org/2000/svg"
   xmlns="http://www.w3.org/2000/svg"
   xmlns:sodipodi="http://sodipodi.sourceforge.net/DTD/sodipodi-0.dtd"
   xmlns:inkscape="http://www.inkscape.org/namespaces/inkscape"
   width="80.229164mm"
   height="80.229164mm"
   viewBox="0 0 80.229164 80.229164"
   version="1.1"
   id="svg8"
   inkscape:version="0.92.4 (5da689c313, 2019-01-14)"
   sodipodi:docname="logo.svg">
  <defs
     id="defs2" />
  <sodipodi:namedview
     id="base"
     pagecolor="#ffffff"
     bordercolor="#666666"
     borderopacity="1.0"
     inkscape:pageopacity="0.0"
     inkscape:pageshadow="2"
     inkscape:zoom="1.979899"
     inkscape:cx="174.79397"
     inkscape:cy="120.35798"
     inkscape:document-units="mm"
     inkscape:current-layer="layer1"
     showgrid="true"
     showguides="true"
     inkscape:guide-bbox="true"
     inkscape:window-width="1920"
     inkscape:window-height="1016"
     inkscape:window-x="0"
     inkscape:window-y="27"
     inkscape:window-maximized="1">
    <inkscape:grid
       type="xygrid"
       id="grid4542"
       originx="-63.63989"
       originy="-151.59495" />
  </sodipodi:namedview>
  <metadata
     id="metadata5">
    <rdf:RDF>
      <cc:Work
         rdf:about="">
        <dc:format>image/svg+xml</dc:format>
        <dc:type
           rdf:resource="http://purl.org/dc/dcmitype/StillImage" />
        <dc:title />
      </cc:Work>
    </rdf:RDF>
  </metadata>
  <g
     inkscape:label="Capa 1"
     inkscape:groupmode="layer"
     id="layer1"
     transform="translate(-63.639889,-65.175884)">
    <circle
       style="opacity:1;fill:#668d28;fill-opacity:1;fill-rule:nonzero;stroke:#b67600;stroke-width:3.5;stroke-linecap:butt;stroke-miterlimit:4;stroke-dasharray:none;stroke-opacity:1;paint-order:normal"
       id="path4548"
       cx="103.75447"
       cy="105.29047"
       r="38.364582"
       inkscape:export-xdpi="95"
       inkscape:export-ydpi="95" />
    <path
       style="fill:#b37500;fill-opacity:1;stroke:#001700;stroke-width:3.5;stroke-linecap:round;stroke-linejoin:bevel;stroke-miterlimit:4;stroke-dasharray:none;stroke-opacity:1"
       d="m 96.572917,107.82286 c -1.431511,8.77666 -2.142445,13.47078 -3.012374,18.68329 -0.666479,3.99345 -9.121851,4.6915 -10.285899,-0.5638 -0.923517,-4.16938 -4.304343,-23.44396 -5.415555,-28.20926 -1.657534,-7.10814 4.539571,-11.73468 8.717133,-11.74225 4.846322,-0.009 28.571188,-0.17344 37.733258,0.0281 9.07713,0.1996 7.7523,11.72666 1.64201,13.43011 -7.81203,2.17788 -15.88794,4.59059 -29.378574,8.37386"
       id="path4532"
       inkscape:connector-curvature="0"
       sodipodi:nodetypes="cssssssc"
       inkscape:export-xdpi="95"
       inkscape:export-ydpi="95" />
    <text
       xml:space="preserve"
       style="font-style:normal;font-variant:normal;font-weight:normal;font-stretch:normal;font-size:4.93888855px;line-height:1.25;font-family:'Standard Symbols L';-inkscape-font-specification:'Standard Symbols L';letter-spacing:0px;word-spacing:0px;fill:#000000;fill-opacity:1;stroke:none;stroke-width:0.26458332"
       x="96.726936"
       y="131.60989"
       id="text825"><tspan
         sodipodi:role="line"
         id="tspan823"
         x="96.726936"
         y="131.60989"
         style="font-style:normal;font-variant:normal;font-weight:bold;font-stretch:normal;font-size:14.11111069px;font-family:'Tomson Talks';-inkscape-font-specification:'Tomson Talks Bold';letter-spacing:-0.97366667px;stroke-width:0.26458332">upitres</tspan></text>
    <g
       id="g839"
       transform="matrix(0.34559989,0,0,0.35304222,108.30349,76.37373)"
       style="fill:#fcffff;fill-opacity:1;stroke-width:0.57257169;stroke-miterlimit:4;stroke-dasharray:none">
      <path
         sodipodi:nodetypes="ccccscc"
         inkscape:connector-curvature="0"
         id="path827"
         d="m 17.197916,101.20833 33.072917,-15.874999 -9.260417,26.458329 -6.051129,-2.47631 c 0,0 -7.178038,10.41381 -7.178038,9.0909 0,-1.32292 -1.322917,-13.22917 -1.322917,-13.22917 z"
         style="fill:#fcffff;fill-opacity:1;stroke:#000000;stroke-width:0.57257169;stroke-linecap:butt;stroke-linejoin:miter;stroke-miterlimit:4;stroke-dasharray:none;stroke-opacity:1" />
      <path
         inkscape:connector-curvature="0"
         id="path829"
         d="M 26.458332,105.17708 50.270833,85.333331"
         style="fill:#fcffff;fill-opacity:1;stroke:#000000;stroke-width:0.57257169;stroke-linecap:butt;stroke-linejoin:miter;stroke-miterlimit:4;stroke-dasharray:none;stroke-opacity:1" />
      <path
         inkscape:connector-curvature="0"
         id="path831"
         d="M 30.365825,107.81648 50.270833,85.333331"
         style="fill:#fcffff;fill-opacity:1;stroke:#000000;stroke-width:0.57257169;stroke-linecap:butt;stroke-linejoin:miter;stroke-miterlimit:4;stroke-dasharray:none;stroke-opacity:1"
         sodipodi:nodetypes="cc" />
      <path
         inkscape:connector-curvature="0"
         id="path833"
         d="m 27.781249,118.40625 c 1.322917,-1.32292 2.584576,-10.58977 2.584576,-10.58977 l 4.593462,1.49887"
         style="fill:#fcffff;fill-opacity:1;stroke:#000000;stroke-width:0.57257169;stroke-linecap:butt;stroke-linejoin:miter;stroke-miterlimit:4;stroke-dasharray:none;stroke-opacity:1"
         sodipodi:nodetypes="cc" />
    </g>
    <path
       style="fill:none;stroke:#000000;stroke-width:0.07436044;stroke-linecap:butt;stroke-linejoin:miter;stroke-miterlimit:4;stroke-dasharray:0.4461626, 0.4461626;stroke-dashoffset:0;stroke-opacity:1"
       d="m 117.73959,118.10153 c -0.39611,-0.0807 -0.58565,0.331 -0.71149,0.63084 -0.15613,0.33072 -0.55622,0.41598 -0.75362,0.71842 -0.29347,0.15777 -0.54993,0.41812 -0.91218,0.3993 -0.35826,0.0563 -0.53497,0.44556 -0.94246,0.33237 -0.66927,-0.007 -1.33979,4.2e-4 -2.00816,-2.8e-4 -0.36208,-0.0585 -0.56675,-0.42505 -0.66109,-0.7453 0.0194,-0.40221 -0.0556,-0.83483 0.18026,-1.19424 0.25567,-0.34184 0.21706,-0.92495 0.75094,-0.96347 0.26914,-0.20534 0.6498,0.18492 0.91873,0.29225 0.15322,0.1236 0.31838,0.31307 0.455,0.37095 -0.0223,0.47961 5e-5,0.96419 -0.009,1.44342 -0.15253,0.28897 -0.13317,0.61968 -0.26511,0.91034 -0.15703,0.24187 -0.27211,0.4807 -0.53047,0.5791 -0.25246,0.27423 -0.59269,0.43893 -0.83296,0.72628 -0.37052,0.18863 -0.81482,0.20572 -1.12997,0.50985 -0.35086,0.0296 -0.67783,0.23109 -1.02993,0.25346 -0.59287,0.006 -1.18728,-0.0131 -1.77913,0.0102 0.0985,-0.13854 0.26969,-0.22749 0.40016,-0.34154"
       id="path841"
       inkscape:connector-curvature="0" />
    <flowRoot
       xml:space="preserve"
       id="flowRoot844"
       style="font-style:normal;font-variant:normal;font-weight:normal;font-stretch:normal;font-size:26.66666794px;line-height:1.25;font-family:'Standard Symbols L';-inkscape-font-specification:'Standard Symbols L';letter-spacing:0px;word-spacing:0px;fill:#000000;fill-opacity:1;stroke:none"
       transform="matrix(0.26458333,0,0,0.26458333,63.110722,65.175884)"><flowRegion
         id="flowRegion846"
         style="font-size:26.66666794px"><rect
           id="rect848"
           width="305"
           height="55"
           x="-0.52871811"
           y="311.18564"
           style="font-size:26.66666794px" /></flowRegion><flowPara
         id="flowPara850"
         style="font-size:48px;text-anchor:middle;text-align:center">Pupitres</flowPara></flowRoot>  </g>
</svg>
